<svg width="364" height="400" xmlns="http://www.w3.org/2000/svg">

 <g id="imagebot_2">
  <path transform="translate(-21) matrix(0.53285, 0, 0, 0.53285, -64.2813, -78.1104)" fill-rule="evenodd" stroke="#000000" stroke-width="0.80918px" fill="#000000" d="M494.11,149.49 C492.38,149.65 467.87,150.76 465.72,153.39 C449.56,151.58 453.64,156.8 438.1,157.85 L403.14,165.73 C381.12,178.48 359.81,174.21 341.12,196.52 C324.18,195.35 301.12,221.51 289.43,231.17 C275.25,242.86 261.27,262.68 253.96,278.93 C242.61,286.5 233.06,304.63 230.01,317.8 C225.38,333.36 219.65,343.41 215.76,359.15 C209.23,374.29 211.62,394.54 208.92,408.88 C200.4,417.73 208.62,434.39 201.51,446.62 C201.51,459.31 204.7,471.42 202.02,483.73 C211.3,499.15 209.18,511.9 217.69,533.17 C219.68,543.68 226.43,555.68 228.78,569.44 C235.79,581.44 241.3,593.68 248.86,604.46 C258.49,611.78 255.39,622.26 268.1,627.31 C273.87,638.38 282.34,644.66 292.65,652.94 C305.22,659.72 314.14,671.42 329.26,673.59 C340.92,677.13 365.68,688.36 378.41,688.47 C394.56,694.21 425.82,693.69 436.68,686.38 C429.29,712.1 405.69,738.09 388.43,759.02 C420.16,757.61 453.71,769.92 471.37,797.6 C493.09,827.47 500.85,870.34 536.66,887.84 C556.66,897.24 579.71,898.93 600.92,895.13 C603.58,871.59 602.76,844.8 609.98,821.98 C616.07,794.19 625.9,766.91 649.31,746.87 C681.02,753.05 717.06,757.57 748.24,747.53 C768.86,742.8 772.66,723.11 766.29,706.29 C765.45,689.08 796.73,686.53 777.38,671.05 C766.57,665.63 781.25,660 784.9,654.41 C799.66,643.54 776.31,635.3 773.47,624.88 C768.28,614.72 782.6,613.34 788.52,608.59 C811.65,602.31 805.99,576.57 789.77,566.16 C776.11,553.56 767.55,535.74 762.84,518.47 C767.57,505.59 776.06,493.04 772.29,478.64 C767.16,450.8 755.21,424.13 740.32,400.34 C745.4,386.89 759.32,382.25 759.07,367.28 C762.23,357.34 768.52,344.24 771.76,333.99 C775.22,323.03 774.66,303.46 770.81,291.93 C767.58,274.63 758.24,262.83 750.79,248.55 C743.78,233.94 733.87,222.71 723.63,210.59 C710.92,198.95 699.37,190.29 685.5,182.64 C670.13,175.72 653.47,168.88 636.17,165.22 C621.41,162.58 609.31,150.1 593.34,156.9 C583.1,148.86 579.72,152.86 568.42,149.15 C552.79,152.98 544.65,146.84 530.08,146.59 C521.8,152.58 500.29,148.92 494.11,149.49 L494.11,149.49 z M567.94,610.23 L567.94,618.88 C560.11,621.47 552.11,644.25 549.33,668.9 C546.28,695.86 550.64,718.41 559.12,719.25 C567.59,720.08 576.94,698.91 579.99,671.95 C582.48,649.93 580,624.92 574.39,618.21 L574.39,610.57 C588.1,614.95 596.11,639.82 592.44,672.29 C588.54,706.76 572.98,733.43 557.7,731.92 S533.21,701.21 537.11,666.75 C540.68,635.17 553.98,613.06 567.94,610.23 z" id="imagebot_4"/>
  <title>imagebot_2</title>
 </g>
 <metadata>image/svg+xmlOpenclipartAfrican American Female Silhouette2011-09-03T09:07:17Profile inspired by 1970's style. Pick is a separate object.https://openclipart.org/detail/159001/african-american-female-silhouette-by-studio_hadesstudio_hades1970'sAfroBlack PanthersBlack PowerBlaxploitationCivil RightsDIngbatFunkyGirlGroovyProfileRetroSilhouette</metadata>
</svg>