<?xml version="1.0" encoding="utf-8"?>

<!DOCTYPE svg PUBLIC "-//W3C//DTD SVG 1.1//EN" "http://www.w3.org/Graphics/SVG/1.1/DTD/svg11.dtd">
<svg version="1.1" id="Layer_1" xmlns="http://www.w3.org/2000/svg" xmlns:xlink="http://www.w3.org/1999/xlink" x="0px" y="0px"
	 viewBox="0 0 2596.509 2249.061" enable-background="new 0 0 2596.509 2249.061" xml:space="preserve">
<path d="M2571.656,1273.136c1.772,1.726,3.551,3.468,5.421,5.119c-2.872-15.792-7.604-11.834-4.388-30.502
	c1.44,0.196,2.895,0.498,4.357,0.852c0.528-1.545,1.575-3.151,1.018-4.825c-0.829-4.161-1.832-8.27-3.664-12.107
	c-0.641-3.453-3.317-5.835-4.712-8.918c-4.26-7.934,2.147,0.105-10.743-18.636c-1.907-4.282-2.051-9.046-3.008-13.57
	c-2.069-11.155-14.841-18.688-13.517-24.734c0.807-4.041,0.588-8.187,1.372-12.22c-3.194-24.252,0.687-13.102-17.987-44.478
	c-7.006-13.896-0.806,4.961-13.434-31.828c0.339-4.041,0.55-8.149,1.877-12.017c0.564-5.161-0.13-32.952-0.369-33.954
	c-0.475-2.088,0.648-3.995,1.214-5.933c0.588-1.794,0.746-3.694,1.319-5.488c0.045,2.993,2.073,5.526,1.817,8.556
	c-0.098,4.636,0.113,9.28,0.113,13.924c1.9-2.382,1.123-5.526,1.689-8.292c0.46-3.325,1.251-6.649,0.754-10.011
	c0.641-4.614,1.734-9.227,0.942-13.909c1.165-11.684-6.634-23.86,1.282-32.59c1.236,0.377,2.148-0.249,2.322-1.538
	c0.347-3.174,1.99-6.114,1.9-9.325c-1.251-7.999-1.448-16.118-3.091-24.064c-0.309-3.611-2.284-7.373-0.475-10.856
	c3.747,0.49,5.111,4.651,7.554,7.034c0.316-0.234,0.957-0.694,1.274-0.927c-1.93-10.729-12.735-39.191-13.17-40.196
	c-2.134-3.242-4.485-6.415-5.631-10.17c0.309-0.829,0.648-1.651,1.018-2.465c3.234,0.588,5.171,3.566,7.983,5.043
	c1.314-5.704-8.392-16.565-7.433-22.707c1.221-1.666,3.513-0.588,5.285-0.852c-6.38-13.144-11.034-17.287-10.554-24.78
	c1.146-1.922,3.566-0.49,5.277-0.256c0.294-0.807,0.776-1.658,0.188-2.45c-1.553-3.43-2.842-6.996-5.126-10.011
	c-0.264-3.581-3.347-5.677-4.915-8.647c-7.837-13.231-1.904-19.456-10.886-36.623c-7.538-12.269-22.969-21.476-34.165-29.898
	c-11.631-8.268-32.081-29.575-36.879-33.238c-13.198-12.194-72.477-54.211-72.477-54.211c-0.09-1.312,0.769-2.412,1.266-3.573
	c-1.395-2.669-1.696-5.91-3.867-8.119c-1.832-1.809-2.473-4.335-3-6.755c1.568-0.882,3.166-1.726,4.765-2.608
	c-5.48-7.629-12.394-2.842-19.721-7.471c0.08-12.325,3.707-10.929,6.536-17.558c0.43-2.344,0.498-4.757,1.086-7.079
	c-3-2.139,2.454-1.751-32.484-1.643c-5.882,0.282-10.819-4.36-20.897-6.272c-7.501-1.741-15.1-2.993-22.767-3.566
	c-4.704-0.143-9.529,0.581-14.052-1.033c-5.895-1.372-10.75-5.307-16.593-6.777c-2.156-0.565-4.387-0.58-6.536-1.003
	c-4.47-0.543-8.7-2.164-13.147-2.737c-3.664-0.897-7.561,0.068-11.074-1.447c2.186-4.033,6.815-5.888,10.961-7.26
	c3.596-1.048,6.31-3.777,9.567-5.518c3.098-1.659,4.825-4.817,7.094-7.365c4.244-0.588,8.3,0.482,12.16,2.209
	c-0.422-2.955-3.4-4.41-4.546-7.003c-1.199-2.601-4.109-3.453-6.159-5.149c-2.458-1.945-6.197-1.259-8.225-3.83
	c-6.485-7.122-22.037-13.59-29.159-14.572c-4.26-0.513-8.052-2.638-11.421-5.164c-3.046-2.382-6.996-2.737-10.577-3.762
	c-3.687-0.965-6.89-3.619-10.848-3.46c-3.053,0.008-6.054-1.078-8.292-3.151c0-4.395-0.076-8.79,0.045-13.185
	c0.55-0.573,1.116-1.138,1.711-1.711c3.217-0.067,81.545,1.956,85.783,2.835c29.955,1.448,18.337-2.202,30.117-10.682
	c1.602-19.275-51.308-12.019-80.875-15.371c-3.635-0.408-42.868-0.68-47.064-2.699c-2.752-1.832-3.445-5.556-6.378-7.177
	c-14.066,4.718-14.544,6.738-17.693,5.639c-8.338-2.186-17.256-1.508-25.277-4.938c-3.37-1.757-6.951,0.173-10.456-0.045
	c-3.731-0.091-7.478,0.173-11.188-0.151c-5.383-2.134-10.592-4.772-16.14-6.468c-8.349-0.676-11.479-0.432-20.98-8.707
	c0.106-1.342,0.324-2.669,0.573-3.98c-5.373-6.66,1.747-6.064,1.779-22.737c-1.832-0.513-3.83-0.633-5.466-1.561
	c-1.485-1.553-2.601-3.423-4.169-4.878c-2.812-2.993-7.116-4.795-8.526-8.903c0.038-1.666,1.613-2.895,2.51-4.222
	c3.068-3.264,5.081-7.35,6.355-11.61c-0.739-3.392-0.792-6.905,0.528-10.17c1.455-3.438,0.957-7.222,1.824-10.78
	c-1.093-1.221-2.322-2.284-3.528-3.34c-0.286-4.968-1.342-9.861-1.636-14.821c-0.47-3.845,0.38-2.758-10.305-3.965
	c-3.974-2.814-1.211-4.723-9.318-9.634c-1.365-0.777-3.34-1.342-4.606-0.151c-2.609,2.171-5.488,4.116-7.448,6.943
	c-1.006,1.749-10.594,5.428-11.594,5.737c-3.754,1.131-6.679,3.86-9.951,5.888c-3.634,2.556-8.074,3.732-11.534,6.551
	c-30.25,24.084-39.004,51.639-82.149,66.356c-6.196,1.543-8.649,3.57-24.727-4.87c-5.564-2.488-11.941-3.4-16.744-7.388
	c-60.521-47.017-126.886-7.463-194.581-5.202c-1.617,0.078-17.206-0.405-21.289,2.103c-3.302,1.885-5.458,5.141-8.534,7.313
	c-4.832,4.026-10.079,7.516-15.1,11.285c-4.93,4.124-9.74,8.368-14.791,12.348c-7.802,8.354-25.846,11.83-32.13,16.118
	c-2.774,1.892-6.061,2.706-9.19,3.769c-1.372-2.88-0.58-6.144-0.731-9.205c0.196-3.86-0.912-7.592-1.44-11.376
	c-0.244-1.87,0.5-13.471-0.588-18.967c-0.618-5.413-2.088-10.675-2.857-16.057c-1.724-8.695-0.399-58.538,0.656-63.34
	c5.098-19.256,4.682-45.064,5.488-49.318c-1.609-13.157,2.482-16.038-12.1-50.999c-1.485-3.204-3.664-6.348-3.505-10.026
	c0.505-21.499-12.059-35.211-14.844-39.465c-7.573-12.066-8.18-8.878-11.813-13.042c-9.404-10.35-9.975-9.969-16.97-12.469
	c-6.423-2.232-4.937-5.336-27.403-10.253c-10.394-1.293-16.908,1.434-21.432,0.347c-2.36-0.746-3.49-3.083-5.089-4.749
	c-1.297-1.244-3.159-2.231-3.385-4.191c-1.209-17.704,10.233-15.143,21.063-51.15c0.927-2.458,0.045-5.013-0.053-7.524
	c-0.181-3.423-2.465-6.159-3.702-9.212c-1.004-7.121,7.26-10.933-5.564-44.041c-0.807-3.807-2.367-7.395-3.166-11.202
	c-2.578-3.845-5.111-7.953-9.107-10.494c-2.51-1.5-4.47-3.852-7.282-4.81c-5.395-2.74-6.979-0.028-17.784-6.325
	c-2.329-1.334-5.104-1.319-7.561-2.262c-2.827-1.048-5.654-2.578-8.752-2.307c-4.322,0.336-20.934-0.221-27.396,1.809
	c-52.343,15.045-68.474,59.17-54.889,81.772c1.417,2.133,4.463,2.925,5.013,5.676c0.211,1.99-1.282,3.573-2.247,5.157
	c1.274,4.116,0.4,8.458,0.837,12.673c0.629,3.839,6.775,9.456,7.795,19.412c0.814,3.566-0.241,7.38,1.161,10.841
	c1.025,2.608,4.674,3.114,5.368,5.941c14.5,43.396,19.148,49.329,37.49,49.16c1.417,2.533,2.985,5.187,3.144,8.164
	c-1.392,4.043-4.818,3.839-6.046,11.504c-0.422,3.4,1.983,6.83,0.505,10.14c-20.875,23.995-36.062,26.962-16.864,34.022
	c2.073,0.648,2.616,3.015,3.543,4.727c1.983,3.293-6.741,13.054-8.881,17.573c-9.328,14.101-1.192,14.909-5.722,34.15
	c-1.304,2.005-3.694,3.008-4.87,5.089c-2.474,9.035,0.889,9.569-6.445,17.585c-5.153,5.632-10.857,10.824-16.773,15.64
	c-9.513,7.743-20.473,12.695-30.297,19.726c-1.411,1.01-8.185,8.517-8.952,8.727c-6.447,1.772-5.447-3.954-10.688-4.113
	c-1.591,2.42-1.357,6.016-4.177,7.516c-7.157,3.125-9.46-1.484-12.989-0.399c-4.904,3.927-13.417,22.368-15.824,28.142
	c-12.833,3.084-17.255,4.027-22.021,40.445c-0.186,5.833-2.909,26.153-5.646,29.831c-2.239,2.812-2.789,6.544-4.893,9.438
	c-3.053,3.709-8.3,4.576-11.308,8.308c-1.779,1.794-1.274,4.847-3.362,6.408c-8.805,6.882-8.135,16.985-14.572,20.882
	c-2.133,1.274-2.744,4.041-2.473,6.355c1.138,4.772-0.543,9.574-1.885,14.128c-0.554,3.179-35.587,60.407-40.34,62.202
	c-10.418-4.204-9.664-9.657-22.594,7.591c-3.479,4.857-12.84-1.363-19.925,7.953c-5.541,5.677-11.285,11.15-16.758,16.894
	c6.506,4.583,14.821,6.559,20.287,12.665c-4.323,5.427-39.064,31.613-52.145,45.458c-12.838,14.09-64.087,35.715-77.43,40.95
	c-12.818,7.206-27.922,5.166-33.381,5.827c-5.782,1.07-11.723,0.565-17.49-0.181c-7.757,1.666-15.779-0.241-23.528,1.379
	c-3.309,0.271-6.295-2.088-9.672-1.432c-17.38,2.646-30.8-1.846-41.478-1.515c-5.413,0.083-8.933-5.209-14.241-5.352
	c-2.337-0.271-4.131-1.975-6.302-2.714c-2.578-1.304-5.752-0.678-8.172-2.367c-1.923-1.47-99.136-46.794-141.946-107.607
	c-0.666-1.002-66.925-96.183-67.886-100.25c-0.784-2.179,0.279-4.591-0.746-6.732c-1.681-3.664-0.89-8.247-3.679-11.421
	c-1.954-1.908-8.491-4.134-3.445-12.477c-0.89-0.942-1.764-1.907-2.601-2.88c-1.168,0.106-2.322,0.249-3.468,0.422
	c-0.565-0.528-1.123-1.048-1.674-1.561c1.108-0.49,2.224-0.987,3.347-1.462c-1.515-3.324-3.415-6.461-4.078-10.117
	c-0.633-3.717-4.742-4.305-7.267-6.265c-2.367-1.681-1.508-5.157-3.408-7.139c-0.77-0.88-25.117-35.974-25.413-36.412
	c-5.39-9.707-15.576-20.131-14.316-39.97c0.823-8.839-4.869-14.619-2.774-20.03c2.774-3.573,6.823-6.068,8.994-10.132
	c-0.581-1.259-1.561-2.405-1.606-3.845c-0.324-2.133,0.354-4.614-1.168-6.393c-12.32-15.018,2.95-2.174-23.204-30.313
	c-3.053-2.578-3.897-6.687-5.797-10.019c-6.233-5.497-6.359-2.928-10.305-3.943c-1.885-1.018-3.453-3.656-5.873-2.887
	c-6.568,2.211-10.89-0.918-16.894,14.587c0.663,6.001-2.827,11.271-3.272,17.143c-0.203,2.91-2.608,5.398-5.473,5.827
	c-11.58,1.637-10.744-3.351-25.963-3.747c-2.39-0.543-4.591,0.859-6.943,0.95c-3.098,0.249-6.302-0.392-9.325,0.52
	c-6.79,2.137-34.956,6.109-44.237,5.571c-5.862,0.446-16.72-15.534-36.337-11.564c-14.529,1.686-25.435,7.332-29.499,8.277
	c-3.694,0.912-6.152,3.996-8.179,7.003c-4.32-0.204-8.948,0.897-12.974-1.138c-4.629-2.201-9.989-1.915-14.557-4.259
	c-12.683-3.742-29.325-13.144-48.142-17.475c-2.978-0.663-19.994-7.029-25.609-7.592c-20.886-4.676-61.298-7.929-79.782,3.053
	c-4.953,3.113-10.886,3.913-16.088,6.506c-10.138,3.739-11.336,12.926-19.661,23.332c-0.492,0.682-13.42,9.473-14.128,10.011
	c-1.772,2.97-2.149,6.604-3.995,9.551c-31.764,35.49-29.871,37.632-17.723,52.243c4.545,25.324,14.841,15.078,11.27,30.268
	c-6.771,18.033-2.369,19.74,0.837,26.212c0.731,1.824,7.832,7.059,15.387,5.903c23.52-2.318,26.232,1.688,57.143-5.503
	c19.149-8.778,23.251-13.685,27.471-11.504c7.682,4.998,12.936,12.808,20.437,18.048c5.556,3.596,10.743,7.788,15.304,12.59
	c3.832,4.066,16.315,11.665,26.431,21.817c14.484,11.419,10.091,13.071,13.826,22.352c1.116,2.39,0.422,4.99,0.166,7.486
	c1.463,2.812,4.651,4.78,4.433,8.345c1.312,3.279-0.641,6.189-1.598,9.235c0.166,1.96,1.877,3.679,1.236,5.722
	c-0.844,2.789-0.558,5.699,0.286,8.451c-1.138,1.312-2.164,2.744-2.714,4.41c2.661-0.724,5.42-1.44,8.112-0.392
	c-0.505,1.47-1.289,2.835-1.764,4.32c0.799,1.802,2.978,2.593,4.433,3.875c-0.513,1.153-1.025,2.314-1.5,3.49
	c8.012,2.719,12.541-1.803,14.776,7.75c0.384-0.015,1.138-0.038,1.523-0.045c2.543-6.357,6.303-5.438,8.677,5.337
	c-0.347,4.418-6.25,7.388-4.448,12.137c2.578,0.241,4.93-0.837,6.838-2.488c2.473,0.648,4.682,1.915,6.792,3.332
	c-0.807,1.938-1.704,3.83-2.601,5.729c1.636,0.075,3.272,0.136,4.915,0.219c-0.324,3.709-2.525,6.988-2.488,10.758
	c3.35-2.495,2.988-8.426,9.333-7.931c-1.515,3.407-3.581,6.611-4.342,10.32c-0.914,2.785-2.689,13.05,0.226,15.718
	c2.405-5.021,1.5-11.187,5.036-15.748c1.312-2.729,4.651-2.661,7.147-3.505c0.347,0.867,1.108,1.809,0.49,2.774
	c-1.553,3.4-3.732,6.709-3.634,10.599c0.611,0.136,1.832,0.4,2.443,0.535c0.128,12.362-5.235,11.449-4.614,19.525
	c7.503-3.72,5.971-2.59,9.8-0.905c-0.264,1.161-0.535,2.329-0.761,3.521c6.672,6.023,14.881,10.682,19.88,18.349
	c-0.912,1.613-2.337,2.767-4.086,3.37c0.377,6.449,4.528,5.874,6.363,9.355c-7.154,7.857-1.32,0.44-6.4,26.536
	c1.523-0.482,3.031-1.025,4.591-1.379c1.025,0.709,0.286,1.953,0.279,2.948c-0.52,5.171-0.279,10.403,0.151,15.575
	c-0.55,2.548,0.219,5.051,0.324,7.599c-0.731,5.089-1.568,10.531,0.369,15.462c0.581,1.885-0.173,4.184,0.89,5.858
	c2.435,1.689,3.061,4.772,3.626,7.493c2.066-0.573,4.116-1.214,6.182-1.772c1.086,5.534,3.279,10.871,3.483,16.563
	c6.394,18.138,7.454,9.516,8.73,19.857c0.045,4.908,2.45,9.325,3.294,14.097c0.852,4.757,5.285,7.652,6.657,12.19
	c0.633,2.51,3.106,3.498,5.149,4.651c-0.45,5.669,6.714,22.148,13.449,21.553c1.221-0.954,9.986-12.023,10.494-12.929
	c8.46-14.434,18.486-13.828,33.434-14.007c2.556-0.166,3.543,2.51,4.93,4.131c1.892,2.118,4.44,3.875,5.292,6.732
	c2.976,10.095,9.593,12.014,12.175,17.234c5.228,10.885,15.326,25.398,15.326,25.398c11.73,25.361,16.343,22.373,33.434,54.015
	c2.322,4.32,2.443,9.868,6.333,13.268c3.294,2.819,4.161,7.29,6.672,10.682c1.983,2.721,3.739,5.631,4.651,8.918
	c1.327,4.983,5.948,8.398,6.762,13.57c0.677,4.9,19.516,42.982,56.466,74.711c26.433,22.698,47.626,49.396,77.175,69.416
	c28.644,19.407,72.052,47.751,107.793,47.974c2.45-0.03,4.433,1.681,6.77,2.201c39.153,9.244,54.348-0.071,84.901-0.369
	c6.589,0.829,13.17,1.907,19.827,1.998c4.968,0.249,9.378,3.287,14.406,2.925c3.43-0.09,6.747,0.942,9.951,2.066
	c5.285-0.814,10.592,0.482,15.763,1.598c28.114,5.807,109.375,7.485,113.284,6.491c7.26-1.259,14.678-1.47,22.013-0.92
	c2.518,2.028,4.915,4.207,7.426,6.265c3.219,5.39,7.697,9.838,11.813,14.542c1.221,1.756,2.111,3.852,4.003,5.051
	c3.114,1.99,4.365,5.662,6.672,8.406c3.136,3.634,6.272,7.282,9.8,10.569c3.56,3.204,13.825,17.894,21.086,24.146
	c17.917,16.063,27.099,17.027,35.718,21.568c1.606,2.584,7.074,17.775,8.217,24.991c1.191,5.639,5.307,10.238,5.752,16.088
	c0.535,5.111,3.468,9.544,4.222,14.61c0,0,8.519,20.045,17.619,64.572c16.593,40.302,24.307,86.824,31.717,129.574
	c9.923,57.247,13.341,115.615,10.167,173.629c-1.378,25.178,7.087,49.14,14.912,73.367c9.018,27.922,18.727,55.613,28.173,83.392
	c10.319,30.345,10.457,62.717,9.437,94.809c-0.033,1.034,0.149,47.773-0.859,53.744c2.769,16.953-0.289,35.657-1.209,52.651
	c0,23.629-1.086,48.977-4.189,72.4c0.315,8.287-0.966,19.98-5.76,26.709c-8.579,12.066-3.568,15.103-15.914,24.825
	c-2.33,2.231-4.388,5.202-4.086,8.594c65.111,12.469,70.729,0.183,125.527-3.294c1.44-6.792,5.066-12.952,5.805-19.895
	c1.164-10.497,10.248-11.422,14.195-12.921c7.344-2.767,20.157-6.94,20.606-7.234c7.665-12.367,1.472-43.885,0.262-57.963
	c-4.555-53.007-11.502-104.943-21.353-157.153c-2.314-12.265-7.155-25.237-8.081-37.443c-1.597-21.056,4.244-45.185,6.252-66.242
	c1.515-15.882-2.46-50.784,6.634-64.606c8.257-12.625,1.082-38.565,0.467-39.925c-1.665-2.984,0.488-6.314-0.248-9.486
	c-5.616-24.218-13.86-48.191-19.366-72.914c-2.005-9.004-4.496-18.038-6.055-27.127c-1.141-6.652,0.014-15.099-2.51-21.337
	c-11.527-31.7-7.391-72.307-9.182-105.713c-1.834-22.013-2.371-44.218-3.553-66.277c-0.614-11.453-1.231-22.906-1.842-34.36
	c-0.724-13.563-3.046-27.338-1.225-40.91c1.967-14.662,11.309-22.331,15.569-35.095c0.792-2.722,3.596-4.169,4.395-6.883
	c1.048-3.234,3.988-5.383,4.953-8.632c0.339-1.063,0.663-2.299,1.802-2.767c3.604-1.622,29.803-2.35,34.158,3.784
	c2.42,4.267,1.696,9.453,3.377,13.977c1.463,3.709,2.345,7.622,3.807,11.353c1.674,0.022,3.355,0.053,5.051,0.098
	c4.075,12.456-3.411,4.943,11.956,21.259c7.681,7.87,93.06-4.364,102.85-7.569c6.906-1.598,13.585-4.237,20.664-5.021
	c33.525-7.3,58.379-36.116,58.304-43.408c0.241-1.176-0.415-3,1.101-3.475c3.34-1.297,7.177-1.787,9.77-4.523
	c3.747-2.48,6.001-6.815,10.26-8.579c3.023-1.387,6.981-1.606,8.632-4.953c2.201-3.815,7.019-3.634,10.645-5.126
	c1.365-1.327,1.922-3.098,1.229-4.908c1.809-1.462,3.845-2.631,5.677-4.071c2.149-1.854,3.43-4.96,6.438-5.631
	c12.672-1.473,13.652-7.594,14.271-11.934c-1.96-0.203-4.877-0.822-4.614-3.37c0.198-5.807-4.312-9.377,6.626-17.414
	c25.858-17.882,21.907-18.155,42.119-16.909c6.898-1.461,32.936-4.091,88.557-22.005c32.206-7.043,94.483-35.925,109.055-37.558
	c6.031,1.048,12.205-0.219,18.221,1.048c4.779-0.416,13.191-3.713,18.605-9.868c1.402-1.658,1.327-4.621,3.732-5.315
	c8.217-2.933,15.589-5.378,23.543-1.915c12.341,5.015,80.575,15.378,99.292,22.842c0.001,0,19.261,7.87,19.261,7.87
	c3.219,1.38,7.087,1.417,9.718,4.018c0.92,14.617-15.423,14.511,4.063,61.38c1.892,3.604,4.553,6.936,5.631,10.909
	c0.488,6.601,7.206,16.507,9.63,22.918c5.554,14.689,11.882,29.259,16.876,44.108c6.818,15.974,19.184,22.065,20.204,22.774
	c-0.173,2.706,0.603,5.345,2.231,7.539c1.937,2.533,2.066,5.842,3.377,8.677c1.365,2.081,4.493,1.787,5.91,3.875
	c5.026,6.712,8.517,7.361,10.924,23.038c1.04,6.385-0.468,12.755-0.664,19.141c-4.948,14.268-1.872,140.18,5.856,186.462
	c3.163,18.946-3.177,40.458-5.905,59.125c-2.081,13.526-3.958,27.087-5.937,40.629c-1.9,13.003-7.149,26.98-8.391,39.403
	c-1.01,3.83,0.045,7.87-1.093,11.693c-13.578,51.02-13.594,66.953-32.56,109.175c-1.033,2.593-3.875,4.124-4.229,7.026
	c-3.249,17.35-27.116,70.065-35.228,86.205c-1.448,2.834-0.671,6.242-2.262,9.024c-3.502,6.898-20.952,40.048-24.976,44.38
	c-7.053,8.437-4.456,9.918-10.004,15.628c-8.542,10.206-22.286,21.644-25.564,34.753c-1.902,7.341-6.914,7.354-15.748,15.914
	c-0.776,1.568-1.598,3.151-2.058,4.863c5.012,11.01-10.199,14.786-10.652,20.309c9.379,0.14,35.559-11.796,48.316-13.004
	c9.713-2.212,34.357,4.718,41.357,5.149c4.697,1.312,9.167-1.387,13.871-1.146c8.609,0.052,12.049-11.032,14.361-14.942
	c18.676-52.729,117.789-254.551,146.763-288.295c2.601-3.181,4.222-6.996,5.888-10.705c1.968-4.305,5.39-7.644,8.338-11.248
	c1.259-2.299,1.809-4.983,3.536-7.019c2.231-2.714,3.83-5.85,5.322-9.009c4.749-10.473,14.35-18.946,24.561-34.98
	c1.862-3.769,5.692-5.971,7.78-9.589c2.541-3.227,4.81-6.634,6.898-10.17c2.419,1.944-2.641,26.342-1.688,51.391
	c0.935,5.217,1.945,10.494,1.281,15.824c-1.166,6.094-3.319,41.91-7.863,59.963c-0.731,3.31-2.465,6.31-3.181,9.634
	c-0.4,3.053,0.158,6.189-0.55,9.227c-0.176,1.001-7.615,33.505-10.125,38.885c-1.161,2.571-3.136,4.81-3.641,7.659
	c-2.26,25.699-22.135,63.797-24.712,80.845c-4.164,26.07-22.811,60.694-35.552,72.259c-18.38,19.432-11.455,17.793-16.005,25.443
	c-3.287,7.539-9.009,13.562-13.411,20.415c13.826,4.723,25.695,3.566,35.281,3.679c0.219,0.001,51.037,7.026,51.037,7.026
	c4.312,0.92,8.782,0.128,13.102,1.146c4.259,0.052,8.994,0.935,12.914-1.161c3.498-5.94,2.661-13.208,4.478-19.668
	c1.041-3.521,1.5-7.169,1.998-10.788c0.354-3.053-0.618-6.468,1.583-9.001c2.01-2.653,2.521-15.702,4.342-21.998
	c20.225-106.11,69.186-245.214,91.384-279.542c22.72-45.248-2.569,3.884,27.471-59.254c3.023-2.684,7.636-4.222,8.767-8.541
	c0.867-4.026,3.211-7.463,4.538-11.316c1.259-3.159,1.583-6.664,3.136-9.687c1.267-2.714,4.78-3.264,6.023-6.008
	c18.475-40.772-15.157-31.719-24.456-171.837c-0.482-3.83-1.674-7.652-0.761-11.496c-8.265-63.771-1.842-87.088-2.066-127.419
	c-0.09-9.536,4.44-18.741,2.706-28.315c-1.152-5.049,1.525-33.896,1.93-34.897c1.575-3.468-0.347-7.071-0.136-10.63
	c-1.007-12.218,12.924-86.738,13.751-90.329c2.783-11.863,3.012-11.044,5.134-8.466c0.617,1.001,11.923,11.697,13.736,14.942
	c5.854,9.485,8.815,2.102,16.992,9.544c-0.038,2.752,0.595,5.722,3.083,7.313c9.518,6.495,0.624,27.206,4.938,53.864
	c5.591,20.194,9.764,58.317,18.553,59.85c5.567,0.891,6.095,13.743,12.409,14.459c0.128-1.41,0.317-2.82,0.596-4.192
	c2.684,1.794,3.49,5.428,3.686,8.496c-0.098,1.41,1.078,2.352,1.817,3.453c2.435,3.189,4.305,6.755,6.416,10.17
	c1.108,1.832,3,3.091,3.92,5.073c0.889,1.953,1.794,3.905,2.812,5.82c0.498-2.744-0.588-5.134-1.877-7.441
	c-0.739-3.679-2.269-7.162-2.722-10.893c-0.286-3.121-3.279-5.27-3.076-8.504c6.546,4.474-0.445-0.739,15.206,31.828
	c1.055,1.953-0.596,4.576,1.251,6.265c1.561-1.312,3.363-2.314,5.383-2.759c0.083,1.44,0.173,2.895,0.377,4.365
	c11.204-20.867-17.547-56.924-6.084-63.091c-1.184-12.051-1.522-3.418,0.415-13.555c0.068-1.448-0.49-2.842-0.482-4.259
	c0.626-2.45,2.096-4.561,2.872-6.958c1.236-3.114,0.694-6.529,0.844-9.785c0.52,0.023,1.561,0.053,2.081,0.068
	c2.412,2.646,3.604,6.046,5.066,9.265C2575.822,1287.964,2566.927,1276.301,2571.656,1273.136z M277.511,683.279
	c0.302-1.252,0.656-2.48,1.055-3.694c1.251-0.241,2.48-0.618,3.686-1.033c0.482,1.191,0.754,2.465,0.897,3.754
	C281.348,683.015,279.441,683.324,277.511,683.279z M841.104,767.704c-0.233,2.195-1.881,1.819-8.149,1.252
	C835.344,767.237,838.33,767.584,841.104,767.704z M698.351,702.095c5.592,5.432,54.187,37.002,67.321,42.752
	c2.767,1.44,5.699,3.257,6.883,6.31c-32.685-5.48-82.565-46.302-87.283-56.714C690.714,694.376,694.536,698.838,698.351,702.095z
	 M623.439,635.099c1.304,0.89,2.201,2.224,2.88,3.641c-2.955-0.497-5.986-0.581-8.85-1.493c0.641-0.769,1.297-1.53,1.96-2.284
	C620.755,634.956,622.105,634.88,623.439,635.099z M606.952,616.848c-19.941,0.469-25.235-18.548-23.739-24.697
	c0.935-3.234,1.515-6.574,1.319-9.951c3.181,2.013,6.212,4.425,7.976,7.848c4.697,8.458,11.414,15.688,15.409,24.546
	C607.578,615.332,607.261,616.086,606.952,616.848z M614.671,623.655c1.87,1.643,2.714,4.131,4.026,6.204
	c-1.357,2.284-4.568,1.138-5.752-0.686c-1.274-1.968-3.528-2.895-5.224-4.418C609.869,623.911,612.463,621.763,614.671,623.655z
	 M1090.966,699.977c3.375,7.336,5.268,17,5.413,18.553c-1.532,6.621-16.378,13.701-26.152,24.44c0,0-1.514,0.868-21.516,20.709
	c-1.788,1.759-11.596,14.665-17.565,18.636c-16.228,14.575-6.007,4.354-43.604,35.537c-3.551,2.571-8.277,2.292-11.904,4.674
	c-3.106,2.028-6.664,3.242-9.665,5.42c-2.073,1.417-3.558,3.498-5.564,4.983c-5.3,3.453-11.919,3.875-17.256,7.275
	c0.52,3.377,3.95,5.699,3.302,9.363c-88.636,38.054-193.824,55.937-267.97-18.364c-13.972-14.001-31.464-36.852-36.465-56.217
	c-1.847-6.445-5.194-12.989-3.656-19.849c2.382-8.315,4.772-16.728,8.76-24.425c-4.862-0.045-9.717,0.083-14.572-0.075
	c0.384-3.106,3.415-4.727,5.292-6.92c1.576-2.043,4.214-2.322,6.393-3.37c1.787-3,3.068-7.456,7.395-7.267
	c0-0.452-0.015-1.349-0.015-1.802c-3.792-3.656-9.265-4.395-13.246-7.757c3.068-3.038,8.745-0.437,11.293-4.402
	c-2.329-2.669-3.521-6.152-6.408-8.285c-4.591-6.826-6.009-6.344-14.474-10.833c0.347-1.093,0.92-2.066,1.621-2.955
	c-0.678-2.164-0.656-4.44,0.038-6.589c-1.229-0.663-2.473-1.297-3.709-1.907c4.075-6.72,9.206-5.601,9.242-9.996
	c-2.902-1.772-6.008-3.181-8.745-5.209c-5.39-3.747-13.23,0.339-18.018-4.516c4.764-2.397,10.713-2.337,14.768-6.084
	c1.161-1.025,2.699-1.538,4.214-1.764c8.051,3.641,12.002,12.228,19.005,17.271c3.928,3.905,6.853,8.7,10.449,12.906
	c8.157,11.705,26.78,30.087,27.712,31.09c18.452,20.649,43.87,35.825,67.532,47.803c27.109,10.226,30.781,9.429,39.382,11.851
	c1.636,1.651,2.247,4.327,4.765,5.096c5.996-3.178,7.008-5.228,25.3,2.563c11.852,2.531,18.982,2.902,18.982,2.902
	c3.536,1.025,6.687,3.076,10.237,4.101c7.515,1.177,20.793-3.243,31.512-2.872c3.317,0.144,18.42-0.996,36.314-6.649
	c5.952-1.565,24.255-2.364,39.073-8.421c24.588-9.172,55.972-35.285,54.972-34.753c18.749-9.955,43.566-28.889,59.789-48.014
	c1.056-1.402,2.789-1.847,4.35-2.458c5.662,2.608,11.074,5.812,15.929,9.71c2.541,3.792,6.589,7.124,6.838,12.002
	C1097.254,696.818,1094.042,698.273,1090.966,699.977z M1139.907,591.02c-2.345,2.427-1.025,6.084-2.314,8.971
	c-2.39,5.126-6.725,8.918-9.823,13.577c-1.244,2.156-3.852,2.495-6.054,2.94c0.158,1.734,0.754,3.897-0.784,5.217
	c-2.616,1.093-4.855,2.812-7.2,4.357c-0.188-3.483,1.704-6.528,3.98-9.001c0,0,23.301-35.903,24.833-37.874
	c0.565-0.008,1.704-0.023,2.277-0.03C1143.858,583.353,1142.508,587.56,1139.907,591.02z M1151.411,602.909
	c0.739-3.958,1.824-8.888,6.084-10.449C1158,596.734,1155.128,601.001,1151.411,602.909z M1162.704,585.75
	c-0.761,0.641-1.508,1.282-2.239,1.938c0.015-0.565,0.053-1.689,0.068-2.254c0.731-0.656,1.478-1.297,2.239-1.93
	C1162.757,584.062,1162.719,585.193,1162.704,585.75z M1162.78,583.18c-1.681-2.872,0.942-6.446,3.814-7.297
	C1166.964,578.935,1165.109,581.461,1162.78,583.18z M1211.088,433.627c-0.438,8.599-2.442,7.887-4.063,18.741
	c-1.402,6.242-4.41,11.941-7.456,17.512c-0.965-0.008-1.915-0.008-2.849,0.008C1196.666,457.882,1199.279,431.738,1211.088,433.627z
	 M1214.872,481.287c-2.518,6.883-1.659,14.452-4.297,21.304c-2.101,26.13-6.114,29.66-15.319,39.948
	c-0.4-0.309-1.206-0.927-1.606-1.236c-1.04-5.157,3.159-8.956,4.199-13.683c1.184-6.189,3.988-12.137,3.355-18.568
	c-0.362-3.377,2.804-5.202,5.013-7.071c1.975-3.506,0.543-7.395-0.211-10.999c1.197-4.758,5.128-15.838,9.431-17.663
	C1215.536,475.972,1215.822,478.731,1214.872,481.287z M1217.646,509.052c-0.535,0.015-1.598,0.045-2.126,0.06
	c-0.596-4.636,1.576-8.941,1.606-13.532c0.06-3.046,2.058-5.398,3.656-7.78c0.885-7.582-4.758-2.311,5.33-28.474
	c1.802-2.85,4.659-5.654,8.308-5.413C1234.203,461.235,1225.913,495.551,1217.646,509.052z M1234.428,445.523
	c-10.146,8.169-9.563,7.97-14.753,15.515c-4.542-4.791,8.017-23.196,12.167-21.975
	C1233.885,440.54,1234.624,443.088,1234.428,445.523z M1246.407,477.736c-0.565-0.581-1.116-1.153-1.643-1.719
	c1.96-4.682,5.684-8.285,7.697-12.929c0.746-1.53,1.53-3.046,2.367-4.531c0.58,0,1.749,0.015,2.337,0.015
	C1256.553,462.55,1251.427,473.066,1246.407,477.736z M1261.341,464.551c1.003-4.222,1.892-9.491,6.265-11.534
	C1273.627,456.42,1266.133,468.249,1261.341,464.551z M2321.281,1642.909c-7.982,1.917-13.521-104.749-10.026-120.951
	c1.542,4.574,10.198,48.085,10.456,52.884C2322.69,1579.451,2324.432,1634.076,2321.281,1642.909z M2476.918,1116.693
	c0.528,0,1.583,0,2.111,0c-0.008,0.535-0.008,1.613-0.015,2.149c-1.01,0.701-2.043,1.372-3.076,1.983
	C2476.217,1119.43,2476.578,1118.065,2476.918,1116.693z M2475.531,1142.694c-0.264,0.181-0.784,0.535-1.048,0.716
	c-0.52-3.769,1.334-7.139,2.586-10.547c0.784-1.191,2.231-1.756,3.34-2.646c0.233,0.377,0.701,1.131,0.935,1.508
	C2479.375,1135.367,2477.724,1139.181,2475.531,1142.694z M2500.061,1195.54c-1.078,0.264-1.462-0.113-1.146-1.138
	C2499.941,1194.086,2500.325,1194.463,2500.061,1195.54z M2512.131,1252.405l0.694,0.249c0.128-3.196,0.053-6.393,0.128-9.574
	c1.538,2.028,2.789,4.32,2.269,6.981c0.347,1.591-1.229,2.156-2.397,2.593c1.289,0.49,3.272,0.807,3.264,2.623
	c0.437,3.543,0.023,7.267,1.38,10.675c0.799,1.749,0.754,3.686,0.754,5.594C2513.282,1269.804,2514.126,1262.739,2512.131,1252.405z
	 M2523.552,1322.658c-0.95-2.963-2.427-5.677-3.679-8.481c1.259-3.89-1.01-7.509-1.681-11.27
	c-1.998-6.642-1.191-13.675-3.113-20.332c2.586-2.216,4.727,1.033,6.174,2.94c4.688,6.166,1.627,25.246,3.815,35.982
	C2524.69,1321.791,2523.929,1322.364,2523.552,1322.658z M2535.486,1333.408c-6.716-4.268-3.846-23.137-3.528-27.026
	c3.143,0.671,2.606,14.77,2.367,16.789C2535.026,1326.54,2535.953,1329.91,2535.486,1333.408z M2536.496,1163.712
	c-1.628-2.784-8.224-17.092-6.234-22.134c1.055-2.804,0.656-5.782,0.482-8.685c0.219-0.083,0.656-0.249,0.867-0.339
	C2535.048,1136.016,2542.447,1158.426,2536.496,1163.712z M2559.316,1349.443c1.907,2.133,3.913,4.388,4.576,7.275
	c1.214,5.141,4.063,10.592,1.613,15.839c-4.219-1.43-2.848-6.569-7.199-15.552c0.06-1.809,0.535-3.604,0.219-5.398
	C2558.208,1350.724,2558.811,1350.069,2559.316,1349.443z M2557.748,1317.486c-0.92-3.558-2.774-7.335-1.071-10.961
	c0.008-1.312,1.87-0.55,1.975,0.392C2560.13,1310.279,2560.401,1314.614,2557.748,1317.486z M2559.21,1262.673
	c-1.055-0.648-1.055-2.601,0-3.227C2560.122,1259.951,2560.115,1262.13,2559.21,1262.673z M2563.311,1285.432
	c-1.259,0.377-1.673-0.038-1.251-1.251C2563.251,1283.773,2563.673,1284.188,2563.311,1285.432z"/>
</svg>
