<?xml version="1.0" encoding="UTF-8" standalone="no"?>
<svg
   xmlns:dc="http://purl.org/dc/elements/1.1/"
   xmlns:cc="http://creativecommons.org/ns#"
   xmlns:rdf="http://www.w3.org/1999/02/22-rdf-syntax-ns#"
   xmlns:svg="http://www.w3.org/2000/svg"
   xmlns="http://www.w3.org/2000/svg"
   version="1.1"
   id="svg11896"
   viewBox="0 0 734.60726 424.95095"
   height="119.9306mm"
   width="207.32249mm">
  <defs
     id="defs11898" />
  <metadata
     id="metadata11901">
    <rdf:RDF>
      <cc:Work
         rdf:about="">
        <dc:format>image/svg+xml</dc:format>
        <dc:type
           rdf:resource="http://purl.org/dc/dcmitype/StillImage" />
        <dc:title></dc:title>
      </cc:Work>
    </rdf:RDF>
  </metadata>
  <g
     transform="translate(395.85722,8.1030056)"
     id="layer1">
    <path
       id="path12455"
       d="m -372.85722,415.62927 c -6.4394,-2.0138 -19,-16.27859 -19,-21.57785 0,-0.9055 -0.5112,-2.15756 -1.136,-2.78236 -0.6248,-0.6248 -1.3601,-5.42037 -1.634,-10.65682 -0.537,-10.26698 0.5232,-16.18115 5.872,-32.75395 2.7477,-8.51343 4.2757,-12.23011 10.115,-24.60323 3.3938,-7.19124 6.2879,-8.58078 5.207,-2.5 -0.3666,2.0625 -1.062,4.1775 -1.5453,4.7 -0.4833,0.5225 -0.8815,1.6475 -0.8849,2.5 0,0.8525 -0.5869,2.675 -1.2967,4.05 -0.7099,1.375 -2.119,5.2 -3.1314,8.5 -1.0124,3.3 -2.1724,6.45 -2.5776,7 -0.4053,0.55 -0.9866,2.35 -1.2919,4 -0.3053,1.65 -1.2928,5.925 -2.1945,9.5 -2.6724,10.59599 -2.9503,17.11978 -0.9863,23.15154 1.987,6.10219 3.4453,8.04299 8.2959,11.04083 4.2217,2.60918 13.4573,2.81786 18.2779,0.413 1.77,-0.88295 3.6206,-1.60537 4.1125,-1.60537 1.1487,0 10.2602,-5.92341 14.7983,-9.62034 4.8005,-3.91071 11.4614,-10.66845 25,-25.36351 14.7816,-16.04424 37.6928,-39.01615 38.913,-39.01615 0.5193,0 1.5388,-0.58508 2.2656,-1.30019 3.2731,-3.22049 12.9276,-9.67714 19.3214,-12.92155 14.4666,-7.34082 21.8511,-9.11048 38.4167,-9.20638 8.9915,-0.0521 12.5316,-0.41669 12.8333,-1.32188 0.932,-2.79587 8.4052,0.24381 12.75,5.18594 3.382,3.84704 17.3941,11.78815 31,17.56874 11.4012,4.84391 46.8651,7.20056 77.000005,5.11679 16.4016,-1.13413 21.9586,-1.75933 37,-4.16277 15.1033,-2.41332 42.0038007,-8.53682 48.00000069,-10.92647 1.10000001,-0.43839 5.82499961,-2.00368 10.49999931,-3.47843 6.9962,-2.207 20.3842,-7.29654 30.5,-11.59478 12.688,-5.39121 12.5046,-5.23915 14.4273,-11.95902 0.7082,-2.475 1.8552,-6.075 2.5489,-8 0.6938,-1.925 1.8005,-5.3 2.4594,-7.5 1.2973,-4.33105 5.8878,-15.83361 9.6888,-24.27734 1.3066,-2.90253 2.3756,-5.85003 2.3756,-6.55 0,-0.69996 0.3945,-1.70016 0.8767,-2.22266 0.4822,-0.5225 1.8106,-3.65 2.9519,-6.95 5.9494,-17.20148 5.9026,-17.23068 8.0878,5.04607 0.596,6.07534 1.0836,13.53955 1.0836,16.58713 0,6.50965 -2.4153,23.42184 -4.0971,28.68903 -3.5504,11.1187 -10.833,22.52836 -18.2689,28.62146 -2.4512,2.00859 -4.682,4.23901 -4.9573,4.9565 -1.3851,3.60936 3.8683,22.87017 9.142,33.51846 2.8552,5.76487 3.8567,4.86823 4.6125,-4.1295 0.8634,-10.27869 3.5364,-21.25401 7.1701,-29.44028 0.7693,-1.73312 1.3987,-3.64562 1.3987,-4.25 0,-0.60438 0.45,-1.09887 1,-1.09887 0.55,0 1,-0.66288 1,-1.47306 0,-2.79591 9.4087,-16.7091 14.232099,-21.04567 5.524396,-4.96693 10.462896,-6.94867 15.132796,-6.07259 2.9338,0.55038 3.7732,1.64081 9.026,11.72548 6.0318,11.58003 8.4213,14.44408 15.1091,18.1101 3.3592,1.84136 5.4419,2.16906 13,2.04541 13.2978,-0.21756 21.6184,-4.44664 26.6527,-13.54668 l 2.3473,-4.24299 -0.198,-44 c -0.2178,-48.41822 -2.0829,-86.15171 -5.2638,-106.5 -0.6449,-4.125 -1.6159,-10.65 -2.1578,-14.5 -0.542,-3.85 -1.7202,-10.825 -2.6182,-15.5 -2.2075,-11.492308 -2.1262,-25.802938 0.1918,-33.777138 2.7797,-9.56219 4.1016,-9.41896 7.1722,0.77713 8.388,27.853138 15.4226,84.409028 15.3874,123.709698 -0.015,17.13168 2.4245,58.91989 3.9287,67.29031 0.5436,3.025 1.1999,6.85 1.4584,8.5 1.0535,6.72564 2.6748,12.97553 3.6081,13.90881 0.5452,0.54515 0.9912,1.65911 0.9912,2.47547 0,3.27725 4.539,10.52323 10.1218,16.1583 6.2031,6.26118 8.0348,7.27247 7.1679,3.95742 -0.2876,-1.1 -0.8676,-2 -1.2887,-2 -0.4212,0 -1.9752,-3.79824 -3.4534,-8.44052 -2.333,-7.32684 -2.6307,-9.66886 -2.2558,-17.75 0.712,-15.351 3.6611,-24.03389 11.3497,-33.41692 3.7268,-4.54798 12.7822,-10.76538 19.243,-13.21206 9.2557,-3.5051 28.9059,-3.79196 39.6155,-0.57831 11.4213,3.42722 31,15.27828 31,18.76442 0,1.62605 -4.8007,0.90662 -13.3713,-2.00379 -6.8547,-2.32776 -8.3963,-2.47307 -22,-2.07368 -9.2013,0.27015 -17.0403,1.0585 -21.1287,2.12489 -3.575,0.93247 -8.2132,2.06506 -10.3072,2.51686 -4.137,0.89263 -18.4191,7.65255 -20.442,9.67548 -1.7887,1.78866 -1.5512,11.58991 0.4289,17.70573 3.252,10.04409 10.2108,20.68767 18.0446,27.59938 6.4998,5.73481 6.3601,5.65601 18.0727,10.1978 3.6618,1.41992 18.2567,1.01707 22.9992,-0.63484 10.0864,-3.51324 27.4187,-12.69803 34.2038,-18.1253 12.5849,-10.06643 16.972,-13.34914 17.8401,-13.34914 1.6988,0 2.2983,1.79022 1.2422,3.70932 -0.542,0.98488 -1.6299,3.36568 -2.4175,5.29068 -5.633,13.76698 -4.5434,12.52031 -23.1648,26.50521 -12.6481,9.49891 -24.8165,16.3255 -35,19.63535 -12.8033,4.16132 -14.1439,4.35944 -29.5,4.35944 l -15.5,0 -11.8092,-5.90047 c -12.3154,-6.15336 -20.0004,-12.08419 -23.8334,-18.39306 -1.2385,-2.03856 -2.5316,-3.93147 -2.8736,-4.20647 -1.6243,-1.30627 -5.1872,-10.44114 -6.2032,-15.90434 -1.3815,-7.42862 -3.3758,-8.04619 -4.3455,-1.34566 -0.378,2.6125 -1.0256,5.2 -1.4389,5.75 -0.4133,0.55 -1.092,2.125 -1.5082,3.5 -2.1669,7.1582 -11.5798,16.02254 -20.5214,19.32543 -11.6442,4.30117 -27.7111,0.68861 -36.3273,-8.16802 -4.2893,-4.40907 -5.0303,-5.57081 -10.0364,-15.73654 -4.6582,-9.45909 -5.6019,-10.17599 -10.4925,-7.97065 -4.632396,2.08891 -13.213095,9.90142 -15.431395,14.04978 -5.538,10.35678 -6.5858,27.84698 -2.3002,38.39413 2.2103,5.43939 12.047699,20.01537 14.553995,21.56433 1.8217,1.12591 1.1794,5.40353 -1.432796,9.54154 -1.375,2.17814 -2.5,4.31891 -2.5,4.75727 0,0.43835 -1.2985,2.21864 -2.885499,3.9562 -3.3252,3.64069 -5.4899,3.54145 -11.1145,-0.50961 -11.596,-8.35182 -20.981,-23.87297 -25.8214,-42.70386 -2.1825,-8.49083 -4.1916,-22.29218 -4.1852,-28.75 0.01,-7.82817 -0.2248,-7.95284 -8.2138,-4.40606 -2.9038,1.28916 -6.8546,2.90957 -8.7796,3.60092 -1.925,0.69134 -4.4,1.65003 -5.5,2.13043 -2.2189,0.96905 -17.4928,5.87949 -24.4999997,7.87654 -2.4749996,0.70538 -6.5249996,1.87371 -8.9999996,2.59628 -2.475,0.72258 -6.2999997,1.77342 -8.4999997,2.33519 -2.2,0.56178 -6.475001,1.6829 -9.500001,2.49138 -6.8472,1.83001 -23.2491,5.26043 -37,7.73846 -24.5143,4.41769 -70.330405,6.01633 -84.250405,2.93971 -5.9563,-1.31646 -14.6524,-3.06414 -18.5089,-3.71974 -1.7926,-0.30475 -3.5066,-0.95437 -3.809,-1.4436 -0.3024,-0.48923 -1.6098,-0.88951 -2.9054,-0.88951 -2.2132,0 -2.3967,0.46882 -3.0348,7.75 -0.3735,4.2625 -1.3985,9.4375 -2.2777,11.5 -1.3356,3.13274 -2.0876,3.75 -4.5687,3.75 -2.6697,0 -10.166,-4.00975 -14.9493,-7.99634 -5.7544,-4.796 -14.6958,-21.11578 -14.6958,-26.82287 0,-0.94881 -1.3828,-3.40263 -3.0728,-5.45295 l -3.0728,-3.72784 -8.6772,0.0577 c -7.8775,0.0523 -21.0825,2.51435 -22.8235,4.25536 -0.3779,0.37779 -1.3547,0.68694 -2.1707,0.68694 -2.8152,0 -12.7083,5.42466 -21.183,11.61521 -7.1718,5.23878 -15.6686,13.50294 -27.2061,26.46111 -1.2617,1.41698 -5.8546,6.59198 -10.2067,11.5 -20.5501,23.17547 -40.4336,40.42368 -46.5999,40.42368 -1.0281,0 -2.1474,0.45 -2.4873,1 -0.8026,1.29864 -12.9821,1.0371 -17.5,-0.37579 z m 189.9682,-82.37421 c -0.033,-3.94355 -1.8302,-7.25 -3.9397,-7.25 -1.4687,0 -0.614,6.08966 1.2805,9.12311 1.7991,2.88091 2.6942,2.25045 2.6592,-1.87311 z M 65.367085,281.88501 c 3.9682,-2.12369 8.7405,-7.17578 10.8029,-11.4362 1.6045,-3.31431 2.0014,-5.80224 1.7704,-11.09756 -0.4637,-10.63448 -2.3356,-9.81795 -9.1542,3.99305 -3.1039,6.28686 -5.6434,12.41201 -5.6434,13.61145 0,1.19944 -0.4658,3.05121 -1.0352,4.11505 -1.2092,2.25947 0,2.56061 3.2595,0.81421 z m 79.226995,116.85384 c -0.2672,-0.69642 -3.8583,-3.28392 -7.9801,-5.75 -4.3325,-2.59215 -7.7239,-5.34496 -8.0387,-6.52504 -0.666,-2.49659 6.0809,-17.33478 8.2627,-18.17204 1.3126,-0.50369 6.791,1.89618 8.3048,3.63798 1.7382,1.99998 10.4466,7.11791 11.4538,6.7314 0.6707,-0.25736 2.4867,-3.09777 4.0356,-6.31201 1.5489,-3.21424 2.9289,-5.98797 3.0665,-6.16384 0.4998,-0.63853 8.0893,3.77591 14.1941,8.25604 4.6386,3.40409 6.25,5.20179 6.25,6.97247 0,3.04621 -6.7743,16.29067 -8.7129,17.03457 -0.8523,0.32707 -4.9517,-1.95258 -9.7827,-5.44017 -4.5736,-3.30173 -8.7063,-6.00315 -9.1837,-6.00315 -0.4774,0 -2.3539,2.925 -4.1699,6.5 -2.3667,4.65895 -3.8559,6.5 -5.2577,6.5 -1.0757,0 -2.1745,-0.5698 -2.4418,-1.26621 z m -475.1161,-84.47712 c -1.6909,-1.1169 0.3811,-3.59774 5.2079,-6.23537 9.2025,-5.0287 32.6493,-19.16648 41.082,-24.7713 3.5169,-2.3375 6.6193,-4.25 6.8943,-4.25 0.275,0 3.7581,-2.43048 7.7403,-5.40106 18.9921,-14.16756 30.053,-33.04174 34.6692,-59.15914 2.1763,-12.31338 1.3079,-52.50337 -2.1055,-97.4398 -2.4777,-32.619368 -4.1888,-49.856018 -5.4598,-55.000008 -0.3398,-1.375 -0.9608,-5.425 -1.3801,-9 -0.4194,-3.575 -1.3033,-9.425 -1.9645,-13 -1.2174,-6.5836 -0.7857,-17.32704 0.9637,-23.97802 0.5095,-1.937091 1.1829,-4.769391 1.4964,-6.2940106 0.4846,-2.35628 0.8539,-2.62013 2.4625,-1.75921 1.8033,0.96508 3.1731,5.0102296 4.9332,14.5678106 0.4088,2.22011 1.0316,4.50299 1.3839,5.07307 0.3524,0.57007 1.1076,3.70362 1.6783,6.96343 0.5707,3.25981 1.7293,9.52693 2.5748,13.92693 3.7138,19.32935 6.3004,45.67341 7.4619,76.000008 0.5055,13.2 1.3814,36.375 1.9465,51.5 1.9856,53.15203 4.2277,62.82755 16.2946,70.31538 6.6432,4.12228 28.2581,0.38975 38.9257,-6.72181 2.5522,-1.70146 9.9122,-8.04357 16.3555,-14.09357 6.4433,-6.05 12.3462,-11.36186 13.1175,-11.80412 2.7856,-1.59728 3.3631,0.32611 2.7388,9.12121 -0.5216,7.34874 -0.3624,8.92967 1.0145,10.07236 0.8983,0.74549 1.6332,1.86709 1.6332,2.49245 0,1.31106 2.8517,3.3035 8.3592,5.84043 5.0784,2.33928 19.72921,2.45626 25.268705,0.20176 11.1258,-4.52812 13.1543,-5.99777 24.4711,-17.72958 13.3913,-13.88248 15.5705,-14.70373 13.3191,-5.01958 -1.2508,5.38038 -1.2013,6.14086 0.6481,9.96156 2.5994,5.37002 4.6625,7.63156 8.8374,9.68744 4.38,2.15683 6.4361,2.11049 13.0125,-0.29327 10.1653,-3.71555 16.8125,-10.01029 23.588601,-22.33777 3.6877997,-6.70926 6.0603997,-9.46116 7.1861997,-8.33533 0.3534,0.35341 0.5488,3.45503 0.4343,6.8925 -0.2526,7.5806 2.447,13.6006 8.124,18.1162 3.4690996,2.75943 4.3332996,2.97588 11.5687993,2.89773 7.7182,-0.0834 12.1844,-1.49471 20.0152,-6.32486 8.0607,-4.97199 8.5034,-19.86499 2.1384,-71.93913 -0.9753,-7.97963 -2.6454,-23.83576 -3.5811,-34 -0.2279,-2.475 -1.0584,-9.9 -1.8457,-16.5 -0.7873,-6.600008 -1.9102,-17.175008 -2.4953,-23.500008 -0.5852,-6.325 -1.5269,-16 -2.0928,-21.5 -0.5658,-5.5 -1.4403,-15.74441 -1.9432,-22.76535 -0.503,-7.02094 -1.2103,-13.24399 -1.5718,-13.829 -0.9679,-1.56601 1.4241,-10.244001 5.6244,-20.4056506 0.4547,-1.1 1.8063,-4.36249999 3.0035,-7.25 1.938,-4.6744297 4.1512,-6.6282897 5.0971,-4.4999997 0.1833,0.4125 3.2583,2.27301 6.8333,4.1344597 5.8497,3.04586001 23.7727,15.1499496 27.1663,18.3464196 0.741,0.698021 4.0421,3.519121 7.3356,6.269121 11.9489,9.97692 31.112095,30.62434 42.313695,45.59087 2.3014,3.07498 4.1844,5.89642 4.1844,6.26987 0,0.37345 1.2034,2.58256 2.6743,4.90913 5.7056,9.02498 9.6438,17.92459 14.9262,33.730138 8.0608,24.11901 9.5378,60.76677 3.587,89 -3.1225,14.81444 -13.2484,34.57688 -23.571,46.00274 -3.6608,4.05204 -6.6165,5.68207 -6.6165,3.64889 0,-1.58632 4.3267,-10.00425 9.5867,-18.65163 2.1746,-3.575 5.2247,-9.2 6.778,-12.5 1.5534,-3.3 3.4568,-7.19443 4.2298,-8.65429 0.773,-1.45986 1.4055,-3.50736 1.4055,-4.55 0,-1.04264 0.3733,-2.32321 0.8295,-2.84571 1.7687,-2.02565 3.6649,-15.41798 3.5497,-25.07024 -0.1267,-10.61727 -1.885,-28.42599 -3.3943,-34.37976 -4.3011,-16.9655 -10.2557,-31.07138 -19.0193,-45.054858 -14.5224,-23.17231 -51.246395,-60.15035 -70.447695,-70.93512 -2.005,-1.12614 -4.6337,-2.69499 -5.8414,-3.48633 -1.3703,-0.89789 -2.7229,-1.11306 -3.5978,-0.57236 -1.1691,0.72256 -1.209,2.03446 -0.2403,7.90018 0.6389,3.86855 1.1577,9.42205 1.1529,12.34111 0,2.91905 0.6481,11.15737 1.4509,18.30737 0.8028,7.15 1.9181,17.95 2.4783,24 1.5787,17.048898 4.0156,42.960958 5.0783,54.000008 2.7258,28.31537 3.3676,47.10549 2.1021,61.54967 -0.6929,7.90824 -1.674,15.15267 -2.1803,16.09873 -0.5063,0.94607 -0.9206,2.63443 -0.9206,3.75193 0,3.88991 -6.9477,18.58279 -12.1943,25.78821 -6.318,8.67684 -13.8307,13.31146 -21.5779,13.31146 -11.5634993,0 -20.0720993,-6.05587 -26.238599,-18.67488 -2.4736,-5.06197 -3.4496,-6.30845 -3.7781,-4.82512 -0.551401,2.48909 -6.053801,12.48555 -7.875001,14.30679 -0.7421,0.74204 -1.7845,2.16251 -2.3165,3.1566 -0.532,0.99408 -3.4555,3.45899 -6.4966,5.47758 -5.126,3.40243 -6.072,3.67014 -12.9684,3.67014 -12.8403,0 -18.983,-5.08869 -23.1725,-19.19634 -1.4573,-4.90716 -3.3821,-7.39449 -3.3821,-4.37051 0,2.18252 -16.8203,18.68009 -22.3489,21.92004 -20.330105,11.91424 -40.664105,6.91093 -45.901105,-11.29428 -0.9625,-3.34588 -1.75,-7.22791 -1.75,-8.62672 0,-1.39882 -0.4723,-2.5433 -1.0496,-2.5433 -1.2879,0 -5.9051,4.60322 -12.3607,12.3232 -4.8271,5.77259 -12.3124,11.9569 -18.0897,14.94571 -9.0302,4.6716 -10.9618,5.13739 -21.5,5.18432 -11.9391,0.0532 -17.0491,-1.62097 -22.7001,-7.43714 -5.5554,-5.71782 -11.2999,-20.16203 -11.2999,-28.413 0,-7.07163 -1.5711,-3.83422 -5.531,11.39691 -0.9294,3.575 -2.0426,7.4 -2.4737,8.5 -0.431,1.1 -1.5817,4.25 -2.557,7 -4.3876,12.37117 -22.6973,30.78633 -36.4794,36.68943 -4.4247,1.89515 -9.6458,3.76216 -13.4589,4.81279 -1.65,0.45462 -5.475,1.57089 -8.5,2.48061 -3.025,0.90972 -7.525,2.03293 -10,2.49603 -4.3338,0.8109 -15.3593,3.35255 -19.5,4.49522 -1.1,0.30356 -2.5241,0.20573 -3.1648,-0.21741 z m 77.3204,-64.71169 c -0.3606,-0.9397 -0.6556,-3.2943 -0.6556,-5.23242 0,-3.30072 -1.5163,-10.53076 -4.155,-19.81256 -2.3971,-8.43153 -10.2609,-22.9496 -17.2353,-31.81956 -1.3754,-1.74924 -3.9063,-4.98044 -5.6242,-7.18044 -1.718,-2.2 -19.417,-20.425 -39.3313,-40.5 -19.9142,-20.075 -37.9957,-38.72152 -40.181,-41.43672 -2.1852,-2.71519 -5.2542,-6.315188 -6.82,-7.999998 -1.5657,-1.68481 -7.5191,-9.61175 -13.2298,-17.61543 -5.7107,-8.00367 -11.5172,-15.5382 -12.9032,-16.74338 -2.432,-2.11455 -2.5202,-2.61153 -2.5202,-14.19787 0,-10.22166 0.2324,-12.00661 1.5632,-12.00661 0.8598,0 8.3973,5.22769 16.75,11.61708 15.9666,12.21358 21.6868,17.15197 21.6868,18.72269 0,0.56883 -2.8136,0.68593 -7.041,0.29304 -6.5188,-0.60586 -6.9705,-0.52381 -6.0918,1.1064 2.0739,3.8476 12.977,15.36149 49.0149,51.760798 42.9952,43.42639 53.8796,56.15793 63.4342,74.19951 7.4527,14.07275 9.9519,28.49726 7.807,45.06022 -1.1782,9.09839 -3.3253,14.76218 -4.4677,11.78525 z m 167.645405,-56.29498 c -4.1255,-3.60082 -5.301,-7.62901 -5.301,-18.16516 0,-8.78731 -0.231,-10.13809 -1.885,-11.02328 -3.1414,-1.68122 -3.4462,-5.57672 -0.7682,-9.81886 3.0804,-4.87973 5.235,-6.61714 7.2481,-5.84466 1.3766,0.52826 1.5836,2.23719 1.376,11.36187 -0.3583,15.75429 -0.2397,16.65797 2.5865,19.70758 3.1888,3.44073 7.1645,2.96447 11.5075,-1.37855 2.6577,-2.65765 2.9351,-3.563 2.9351,-9.57776 0,-3.65346 -0.4768,-7.53361 -1.0596,-8.62254 -0.5828,-1.08893 -1.1453,-4.38559 -1.25,-7.32591 -0.1446,-4.06025 0.2729,-5.8588 1.736,-7.47801 1.0595,-1.17259 2.2209,-1.78384 2.5809,-1.35835 1.7232,2.0366 5.9927,22.91165 5.9927,29.30053 0,2.29731 5.2471,5.9731 8.5264,5.9731 5.0602,0 5.5411,-3.26203 1.7402,-11.80567 -5.0322,-11.31168 -5.7772,-14.61706 -4.302,-19.08696 2.5801,-7.81801 4.0487,-7.91184 5.9967,-0.38313 1.1433,4.41846 1.9543,6.59434 4.9485,13.27576 2.4772,5.5279 2.9557,9.1451 1.9971,15.0972 -1.5779,9.79832 -6.0652,15.9028 -11.6896,15.9028 -3.7974,0 -8.7809,-3.04969 -9.6962,-5.9336 -1.1513,-3.62742 -3.3138,-3.126 -5.4374,1.26078 -1.1227,2.31908 -3.3577,4.99418 -4.9668,5.94466 -3.8042,2.24721 -10.2287,2.23626 -12.8159,-0.0218 z M -197.22192,162.04137 c -8.1487,-3.79913 -16.7639,-14.42679 -18.9556,-23.38367 -1.3852,-5.66091 -1.3473,-22.92854 0.065,-29.65264 2.2106,-10.524718 5.9198,-20.910298 12.5,-35.000008 4.3469,-9.30766 6.7225,-12.67106 7.762,-10.9892 0.758,1.22653 -3.4969,15.21911 -8.055,26.4892 -0.4449,1.1 -1.4608,4.25 -2.2576,7 -0.7968,2.75 -2.0664,7.024998 -2.8214,9.500008 -0.8277,2.71341 -1.3727,9.12773 -1.3727,16.15615 0,11.53 0.033,11.69775 3.0893,15.5 7.094,8.82659 16.2865,9.4464 29.8824,2.01479 6.1367,-3.35438 8.1565,-5.1312 21.0283,-18.49845 35.4615,-36.826528 42.4113,-43.061778 64.500005,-57.868558 9.2385,-6.19288 24.0667,-14.0322 33.8555,-17.89863 4.0456,-1.59792 7.5562,-3.40278 7.8016,-4.0108 0.2453,-0.60802 -0.5897,-2.85439 -1.8555,-4.99192 -3.5063,-5.9208 -4.77,-10.33357 -4.7865,-16.71469 -0.038,-14.7638906 8.3491,-24.6186403 20.999,-24.6728403 12.0865,-0.0518 42.6935003,20.5398593 43.0826003,28.9849403 0.2039,4.42555 -0.2659,8.47352 -1.1026,9.5 -0.4483,0.55 -1.1165,2.61286 -1.4848,4.58413 -1.2049996,6.44935 -3.87339961,8.3931 -17.0092993,12.3899 -19.411001,5.90613 -18.952501,5.66144 -19.302201,10.30099 -0.1744,2.31339 -1.0839,4.71688 -2.1499,5.68161 -1.7542,1.58751 -1.9633,1.46613 -4.1362,-2.39987 -2.589,-4.60654 -2.3137,-4.61013 -12.903,0.16817 -3.5798,1.61535 -8.0837,3.63368 -10.0087,4.48516 -5.7114,2.52633 -19.1981,9.18351 -23.5,11.5999 -16.602195,9.32538 -34.745605,25.514678 -61.963805,55.290118 -14.7218,16.10497 -20.9081,21.74219 -27.7089,25.24964 -5.1284,2.64493 -7.1685,3.13728 -12.7178,3.06931 -4.1172,-0.0504 -8.0668,-0.76035 -10.4742,-1.88274 z M -28.857215,34.005052 c 7.5647,-2.41664 10.214,-3.84471 9.4439,-5.09069 -0.8212,-1.32879 -7.4471,-5.43262 -9.9439,-6.15886 -1.1,-0.31995 -4.4687,-1.5197 -7.4859,-2.66609 -10.2176,-3.88218 -12.6806,-2.34346 -9.0359,5.64515 5.1558,11.3009 6.3269,12.71278 9.2477,11.14957 1.0086,-0.53975 4.5069,-1.83534 7.7741,-2.87908 z M -128.85642,141.25506 c 0.001,-3.10528 3.6941,-11.58455 5.7809,-13.27431 1.1146,-0.90256 5.1072,-2.64395 8.8724,-3.86977 3.7653,-1.22582 7.7459,-2.59725 8.84591,-3.04762 4.504,-1.84409 10.409795,-4.05315 17.499995,-6.54581 4.125,-1.45021 8.2814,-3.05879 9.2364,-3.57462 0.9551,-0.51583 2.2371,-0.93787 2.8489,-0.93787 0.6118,0 2.5304,-0.63255 4.2636,-1.40566 1.7331,-0.77311 5.4011,-2.16301 8.1511,-3.08867 2.75,-0.92565 5.7814,-2.0931 6.7364,-2.59434 0.9551,-0.50124 2.5526,-0.91134 3.55,-0.91134 0.9975,0 2.2411,-0.39452 2.7636,-0.87671 0.8452,-0.77999 3.7448,-1.877198 16.45,-6.224728 1.925,-0.65871 4.4,-1.56018 5.5,-2.00328 1.1,-0.4431 3.7425,-1.5008 5.8721,-2.35046 4.8991,-1.95452 8.627901,-1.9994 8.627901,-0.10384 0,0.79254 -0.45,1.7191 -1,2.05902 -0.55,0.33992 -1.000001,1.308 -1.000001,2.15129 0,3.6855 -4.0709,6.632508 -13.7445,9.950078 -5.3655,1.84011 -10.6555,3.76216 -11.7555,4.27122 -1.1,0.50907 -3.575,1.4885 -5.5,2.17651 -1.925,0.68801 -4.85,1.7973 -6.5,2.4651 -1.65,0.66779 -5.025,2.00416 -7.5,2.96971 -7.6465,2.98304 -9.3983,3.68355 -12.5,4.99848 -1.65,0.69951 -6.15,2.49589 -10,3.99196 -10.7439,4.17496 -11.7931,4.6078 -14.831,6.11816 -1.5571,0.77413 -3.604595,1.4075 -4.549995,1.4075 -0.9455,0 -2.1465,0.40396 -2.669,0.89768 -0.52251,0.49372 -4.55001,2.3245 -8.95001,4.0684 -4.4,1.74389 -8.7814,3.58994 -9.7364,4.10232 -2.7088,1.45324 -4.7637,1.10014 -4.7628,-0.8184 z m -147.151,-17.75 c -0.087,-0.55 -0.231,-6.625 -0.3205,-13.5 -0.1539,-11.813628 -0.3327,-12.838748 -3.2549,-18.668938 -4.2796,-8.53796 -7.3334,-12.82602 -14.1116,-19.81473 -3.2093,-3.30899 -6.1804,-6.61127 -6.6025,-7.3384 -1.1309,-1.94826 3.523,-11.17794 5.6363,-11.17794 0.9485,0 4.7483,3.0375 8.4442,6.75 8.8437,8.88355 13.7817,19.07738 15.8206,32.65937 1.2668,8.438838 1.2552,10.510188 -0.099,17.691468 -1.3421,7.1156 -5.0731,16.18484 -5.5123,13.39917 z"
       style="fill:#000000" />
  </g>
</svg>
